# xmcd CD database file
#
# Track frame offsets:
#	150
#	12190
#	25007
#	39312
#	48760
#	60362
#	74620
#	84687
#	95682
#	106605
#	118492
#	130345
#	143350
#	154032
#	171440
#	184400
#	198057
#	213032
#	222517
#	235902
#	246790
#	259312
#	274417
#	285467
#
# Disc length: 3983 seconds
#
# Revision: 1
# Processed by: cddbd v1.5.2PL0 Copyright (c) Steve Scherf et al.
# Submitted via: CDex 1.70beta2
#
DISCID=590f8d18
DTITLE=Julie London - Julie London best
DYEAR=2002
DGENRE=Jazz
TTITLE0=You And The Night And The Music（貴女と夜と音楽と）
TTITLE1=I Left My Heart In San Francisco（想い出のサンフランシスコ）
TTITLE2=Misty
TTITLE3=What A Difference A Day Made（縁は異なもの）
TTITLE4=Fly Me To The Moon
TTITLE5=Summertime
TTITLE6=You'd Be So Nice To Come Home To
TTITLE7=Charade
TTITLE8=Don't Smoke In Bed（ベッドで煙草は良くないわ）
TTITLE9=Come On-A-My House（家へおいでよ）
TTITLE10=I Remmber You
TTITLE11=The Days Of Wine And Roses（酒とバラの日々）
TTITLE12=Theme From A Summer Place（夏の日の恋）
TTITLE13=Blues In The Night
TTITLE14=Love Letters
TTITLE15=I've Got You Under My Skin
TTITLE16=There Will Never Be Another You
TTITLE17=Slightly Out Of Tune (Desafinado)
TTITLE18=Black Coffee
TTITLE19=But Not For Me
TTITLE20=The End Of The World（この世の果てまで）
TTITLE21=A Taste Of Honey（蜜の味）
TTITLE22=Sentimental Journey
TTITLE23=Cry Me A River
EXTD=YEAR: 2002
EXTT0=
EXTT1=
EXTT2=
EXTT3=
EXTT4=
EXTT5=
EXTT6=
EXTT7=
EXTT8=
EXTT9=
EXTT10=
EXTT11=
EXTT12=
EXTT13=
EXTT14=
EXTT15=
EXTT16=
EXTT17=
EXTT18=
EXTT19=
EXTT20=
EXTT21=
EXTT22=
EXTT23=
PLAYORDER=
